<svg
  width="187"
  height="25"
  viewBox="0 0 187 25"
  fill="none"
  xmlns="http://www.w3.org/2000/svg"
  class="logo"
>
  <path
    d="M74.8 2.08346C68.7911 4.84466 66.2529 12.0034 69.1019 17.986C71.3294 22.6903 76.1468 25.2469 81.8449 24.7356C88.6825 24.122 93.2928 19.4177 93.3446 12.9238C93.3964 3.87313 83.5025 -1.90496 74.8 2.08346ZM83.9169 7.55474C86.1961 8.83308 87.0249 10.3159 87.0249 13.2306C87.0249 14.9691 86.7141 15.6338 85.0047 17.2701C83.3471 18.9064 82.6219 19.2643 81.0161 19.2643C76.9238 19.2643 73.6086 15.5827 74.3338 11.7988C74.6964 9.80461 75.8878 8.32174 77.9598 7.24794C80.0836 6.22527 81.5859 6.2764 83.9169 7.55474Z"
    fill="black"
  />
  <path
    d="M3.88504 1.98118C3.67784 2.64592 0 22.8948 0 23.5084C0 23.7129 1.24321 23.8663 2.79723 23.8663C6.11247 23.8663 5.85346 24.2242 6.78587 17.0656C7.14848 14.3555 7.61468 12.1056 7.77008 12.1056C7.97729 12.1056 9.1687 14.7134 10.4637 17.8326C12.6911 23.355 12.8465 23.6106 14.297 23.6106C15.6956 23.6106 15.9028 23.3038 18.3374 17.5769C19.736 14.3044 20.9792 11.6454 21.0828 11.7477C21.1864 11.8499 21.4972 13.8953 21.7562 16.2474C22.7404 24.4799 22.4296 23.8663 25.6931 23.8663H28.5421L28.2831 22.1789C28.1277 21.3096 27.6097 17.986 27.1435 14.918C26.6773 11.7988 26.0557 7.55473 25.6931 5.45826L25.0715 1.62325L19.3734 1.31645L17.1978 6.4298C16.0064 9.29327 15.0222 11.8499 15.0222 12.1567C15.0222 12.4635 14.7632 12.6169 14.4524 12.5147C14.1416 12.4124 13.0019 10.1625 11.9659 7.5036C10.9299 4.84466 9.89391 2.33912 9.6867 1.98118C9.4277 1.62325 8.18449 1.36758 6.68227 1.36758C5.07645 1.36758 4.04044 1.62325 3.88504 1.98118Z"
    fill="black"
  />
  <path
    d="M39.9382 4.28222C39.1094 5.91849 36.5712 10.8784 34.2402 15.3782C31.9092 19.8268 30.0443 23.5595 30.0443 23.6618C30.0443 23.7641 31.0803 23.8663 32.3754 23.8663C34.3438 23.8663 34.81 23.6618 35.587 22.4346C36.8302 20.4915 36.8302 20.5427 40.3526 20.6961C43.4607 20.9006 43.5125 20.9006 43.5125 22.3835C43.5125 23.8152 43.6161 23.8663 45.8435 23.8663C48.0709 23.8663 48.1745 23.8152 48.1745 22.3835C48.1745 21.0029 48.3299 20.8495 50.143 20.6961C52.0596 20.5427 52.0596 20.5427 52.0596 18.2417C52.0596 15.9918 52.0078 15.9407 50.2466 15.685L48.4335 15.4293L48.1227 1.36761H41.4405L39.9382 4.28222ZM43.4089 11.6966L43.2535 15.4293L41.3369 15.5827C40.1972 15.685 39.3684 15.5316 39.3684 15.2248C39.3684 14.3555 42.6837 8.01496 43.1499 8.01496C43.3571 8.01496 43.5125 9.70237 43.4089 11.6966ZM46.4651 13.026C46.7759 13.2306 47.1385 14.0998 47.2421 14.918C47.3975 16.2986 47.6047 16.452 49.3659 16.6054C51.179 16.7588 51.3344 16.9122 51.179 18.1394C51.0754 19.2643 50.7128 19.5711 49.2105 19.7757C47.6047 19.9802 47.3975 20.2359 47.2421 21.6676C47.0867 23.0482 46.8277 23.355 45.8435 23.355C44.8593 23.355 44.6003 23.0482 44.4449 21.7187C44.2895 20.287 44.0305 19.9802 42.7355 19.7757C41.4923 19.5711 41.1297 19.2132 41.0261 18.1394C40.8707 16.9122 41.0779 16.7588 42.5801 16.6054C43.9787 16.5031 44.3413 16.1963 44.4449 15.1736C44.7557 12.617 45.1701 12.2079 46.4651 13.026Z"
    fill="black"
  />
  <path
    d="M59.985 10.4182C59.8296 18.395 59.726 19.52 58.949 19.6734C58.4828 19.7756 57.654 19.3666 57.136 18.8041L56.1518 17.7303L54.4424 19.4688C52.4222 21.5142 52.5776 22.3835 55.0122 23.6618C58.3792 25.4003 63.1967 24.3777 65.0615 21.5142C65.7867 20.4404 65.9421 18.6507 65.9939 10.9296L66.0457 1.62326L60.0886 1.31646L59.985 10.4182Z"
    fill="black"
  />
  <path
    d="M95.313 23.8663H101.011V20.0313C101.011 17.9349 101.166 16.1963 101.425 16.1963C101.633 16.1963 102.669 17.6792 103.757 19.52C104.844 21.3097 106.036 23.0482 106.45 23.355C106.865 23.6618 108.574 23.8663 110.542 23.7641L113.961 23.6107L107.227 15.0202L108.729 14.0998C111.268 12.5658 112.045 10.9296 111.786 7.75929C111.371 2.74821 108.988 1.36761 100.752 1.36761H95.313V23.8663ZM104.534 6.78776C106.139 7.86156 105.88 10.0092 104.067 11.0318C101.995 12.1568 101.011 11.492 101.011 8.88423C101.011 7.65703 101.166 6.48096 101.374 6.32756C101.944 5.71395 103.342 5.91849 104.534 6.78776Z"
    fill="black"
  />
  <path
    d="M136.546 8.73081C131.055 10.725 129.605 18.5484 133.956 22.3323C139.758 27.3434 148.771 23.7641 148.771 16.452C148.771 13.6908 147.114 10.5716 144.99 9.34441C142.918 8.11721 138.981 7.86154 136.546 8.73081ZM143.229 13.4351C144.99 15.327 144.938 17.6792 143.073 19.4177C142.193 20.287 141.053 20.7983 140.12 20.7983C137.997 20.7983 135.717 18.4973 135.717 16.4008C135.717 12.617 140.639 10.6739 143.229 13.4351Z"
    fill="black"
  />
  <path
    d="M174.775 8.52625C171.253 9.60005 168.87 13.9464 169.595 18.1393C170.165 21.8721 173.687 24.531 178.194 24.5822C182.96 24.6844 187 20.9006 187 16.4519C186.948 14.1509 185.291 10.8784 183.426 9.60005C181.561 8.27058 177.313 7.75925 174.775 8.52625ZM181.25 13.4351C183.581 16.3497 181.872 20.7983 178.453 20.7983C176.277 20.7983 174.153 19.0597 173.739 16.9121C173.532 15.6849 173.739 15.0202 174.827 13.7419C176.692 11.5431 179.644 11.4409 181.25 13.4351Z"
    fill="black"
  />
  <path
    d="M116.551 23.8663H120.851C126.134 23.8663 128.051 22.8948 129.605 19.4689C130.745 16.8099 130.589 14.8668 128.983 12.2079C127.274 9.4467 125.15 8.5263 120.592 8.5263H116.551V23.8663ZM124.788 13.4351C127.015 16.2475 125.306 20.7983 121.99 20.7983C120.695 20.7983 120.695 20.7472 120.695 16.452V12.1056H122.198C123.234 12.1056 124.062 12.5658 124.788 13.4351Z"
    fill="black"
  />
  <path
    d="M151.517 9.13987C150.843 11.0829 149.186 23.5084 149.548 23.8663C149.755 24.0709 150.688 24.1731 151.62 24.0197C153.174 23.7641 153.278 23.6618 153.589 20.8494C154.003 17.3212 154.366 16.0429 154.78 16.452C154.987 16.6565 155.764 18.3439 156.489 20.1847C157.629 22.997 158.095 23.6107 159.028 23.6107C159.908 23.6107 160.375 23.1504 160.841 21.821C161.203 20.8494 161.877 19.1109 162.395 17.986L163.327 15.9406L164.467 23.6107L166.642 23.7641C168.818 23.9175 168.87 23.9175 168.611 22.4857C168.455 21.7187 167.886 18.2928 167.419 14.918L166.487 8.78194L164.519 8.62854C162.188 8.42401 162.032 8.57741 160.53 12.9749C159.96 14.7646 159.287 16.1963 159.08 16.1963C158.924 16.1963 158.095 14.4578 157.318 12.3613L155.868 8.52627H153.796C152.604 8.52627 151.672 8.78194 151.517 9.13987Z"
    fill="black"
  />
</svg>